<svg width="20" height="20" viewBox="0 0 20 20" fill="none" xmlns="http://www.w3.org/2000/svg">
<path fill-rule="evenodd" clip-rule="evenodd" d="M13.6118 18.3335C16.4359 18.3335 18.3334 16.3518 18.3334 13.4035V6.59683C18.3334 3.6485 16.4359 1.66683 13.6101 1.66683H6.38677C3.56343 1.66683 1.66677 3.6485 1.66677 6.59683V13.4035C1.66677 16.3518 3.56343 18.3335 6.38677 18.3335H13.6118ZM13.6118 17.0835H6.38677C4.27927 17.0835 2.91677 15.6393 2.91677 13.4035V6.59683C2.91677 4.361 4.27927 2.91683 6.38677 2.91683H13.6101C15.7201 2.91683 17.0834 4.361 17.0834 6.59683V13.4035C17.0834 15.6393 15.7201 17.0835 13.6118 17.0835ZM9.9951 10.6252C10.3401 10.6252 10.6201 10.3452 10.6201 10.0002V6.66683C10.6201 6.32183 10.3401 6.04183 9.9951 6.04183C9.6501 6.04183 9.3701 6.32183 9.3701 6.66683V10.0002C9.3701 10.3452 9.6501 10.6252 9.9951 10.6252ZM9.99918 13.9967C10.46 13.9967 10.8325 13.6242 10.8325 13.1634C10.8325 12.7026 10.46 12.3301 9.99918 12.3301C9.53835 12.3301 9.16168 12.7026 9.16168 13.1634C9.16168 13.6242 9.53085 13.9967 9.99085 13.9967H9.99918Z" fill="black"/>
</svg>
