<svg width="14" height="14" viewBox="0 0 14 14" fill="none" xmlns="http://www.w3.org/2000/svg">
<path d="M5.6868 1.3999C5.49223 1.39991 5.30149 1.45398 5.13586 1.55607C4.97023 1.65817 4.83623 1.80428 4.7488 1.9781L4.3358 2.7999H3.1528C2.68867 2.7999 2.24355 2.98428 1.91536 3.31247C1.58718 3.64065 1.4028 4.08577 1.4028 4.5499V10.1499C1.4028 10.614 1.58718 11.0592 1.91536 11.3873C2.24355 11.7155 2.68867 11.8999 3.1528 11.8999H6.72C6.60553 11.6762 6.51338 11.4417 6.4449 11.1999H3.1535C2.87502 11.1999 2.60795 11.0893 2.41104 10.8924C2.21413 10.6955 2.1035 10.4284 2.1035 10.1499V4.5499C2.1035 4.27143 2.21413 4.00435 2.41104 3.80744C2.60795 3.61053 2.87502 3.4999 3.1535 3.4999H4.5521C4.61693 3.49977 4.68044 3.48164 4.73557 3.44752C4.79069 3.41341 4.83526 3.36466 4.8643 3.3067L5.3739 2.2924C5.40309 2.23447 5.44781 2.18579 5.50306 2.1518C5.55832 2.11781 5.62193 2.09984 5.6868 2.0999H8.3216C8.38666 2.09977 8.45048 2.11779 8.50587 2.15191C8.56127 2.18604 8.60605 2.23493 8.6352 2.2931L9.1413 3.306C9.1704 3.36407 9.21507 3.41289 9.27033 3.44701C9.32559 3.48113 9.38926 3.4992 9.4542 3.4992H10.8535C11.132 3.4992 11.3991 3.60983 11.596 3.80674C11.7929 4.00365 11.9035 4.27073 11.9035 4.5492V6.7213C12.153 6.84908 12.3877 7.00377 12.6035 7.1826V4.5492C12.6035 4.08507 12.4191 3.63995 12.0909 3.31177C11.7627 2.98358 11.3176 2.7992 10.8535 2.7992H9.6705L9.261 1.9802C9.17376 1.80578 9.03966 1.6591 8.87374 1.5566C8.70782 1.4541 8.51663 1.39984 8.3216 1.3999H5.6868ZM7 4.1999C7.62506 4.19993 8.23216 4.409 8.72469 4.79384C9.21723 5.17869 9.56691 5.7172 9.7181 6.3237C9.48536 6.34974 9.2555 6.39707 9.0314 6.4651C8.93734 6.10773 8.75068 5.7815 8.49024 5.51932C8.22981 5.25715 7.90483 5.06832 7.54809 4.97188C7.19136 4.87544 6.81549 4.87482 6.45844 4.97007C6.10138 5.06531 5.77577 5.25306 5.51447 5.51437C5.25316 5.77567 5.06541 6.10128 4.97016 6.45834C4.87492 6.81539 4.87554 7.19126 4.97198 7.54799C5.06842 7.90473 5.25725 8.22971 5.51942 8.49015C5.7816 8.75058 6.10783 8.93724 6.4652 9.0313C6.39722 9.25517 6.34989 9.4848 6.3238 9.7173C5.66238 9.55016 5.08469 9.1474 4.69911 8.5846C4.31353 8.0218 4.14657 7.33765 4.22956 6.6605C4.31255 5.98336 4.63978 5.35977 5.14986 4.90674C5.65993 4.45371 6.31779 4.20238 7 4.1999ZM13.3 10.1499C13.3 10.9853 12.9681 11.7865 12.3774 12.3773C11.7866 12.968 10.9854 13.2999 10.15 13.2999C9.31457 13.2999 8.51336 12.968 7.92262 12.3773C7.33188 11.7865 7 10.9853 7 10.1499C7 9.31447 7.33188 8.51326 7.92262 7.92252C8.51336 7.33178 9.31457 6.9999 10.15 6.9999C10.9854 6.9999 11.7866 7.33178 12.3774 7.92252C12.9681 8.51326 13.3 9.31447 13.3 10.1499ZM10.5 8.7499C10.5 8.65708 10.4631 8.56805 10.3975 8.50242C10.3319 8.43678 10.2428 8.3999 10.15 8.3999C10.0572 8.3999 9.96815 8.43678 9.90251 8.50242C9.83688 8.56805 9.8 8.65708 9.8 8.7499V9.7999H8.75C8.65718 9.7999 8.56815 9.83678 8.50251 9.90242C8.43688 9.96805 8.4 10.0571 8.4 10.1499C8.4 10.2427 8.43688 10.3318 8.50251 10.3974C8.56815 10.463 8.65718 10.4999 8.75 10.4999H9.8V11.5499C9.8 11.6427 9.83688 11.7318 9.90251 11.7974C9.96815 11.863 10.0572 11.8999 10.15 11.8999C10.2428 11.8999 10.3319 11.863 10.3975 11.7974C10.4631 11.7318 10.5 11.6427 10.5 11.5499V10.4999H11.55C11.6428 10.4999 11.7319 10.463 11.7975 10.3974C11.8631 10.3318 11.9 10.2427 11.9 10.1499C11.9 10.0571 11.8631 9.96805 11.7975 9.90242C11.7319 9.83678 11.6428 9.7999 11.55 9.7999H10.5V8.7499Z" fill="#00BE16"/>
</svg>
