<svg width="20" height="20" viewBox="0 0 20 20" fill="none" xmlns="http://www.w3.org/2000/svg">
<path fill-rule="evenodd" clip-rule="evenodd" d="M13.6117 1.6665C16.4358 1.6665 18.3333 3.64817 18.3333 6.5965V13.4032C18.3333 16.3515 16.4358 18.3332 13.6108 18.3332H6.3875C3.56333 18.3332 1.66667 16.3515 1.66667 13.4032V6.5965C1.66667 3.64817 3.56333 1.6665 6.3875 1.6665H13.6117ZM13.6117 2.9165H6.3875C4.27917 2.9165 2.91667 4.36067 2.91667 6.5965V13.4032C2.91667 15.639 4.27917 17.0832 6.3875 17.0832H13.6108C15.72 17.0832 17.0833 15.639 17.0833 13.4032V6.5965C17.0833 4.36067 15.72 2.9165 13.6117 2.9165ZM13.2902 9.17792C13.751 9.17792 14.1235 9.55042 14.1235 10.0113C14.1235 10.4721 13.751 10.8446 13.2902 10.8446C12.8293 10.8446 12.4527 10.4721 12.4527 10.0113C12.4527 9.55042 12.8218 9.17792 13.2818 9.17792H13.2902ZM9.94875 9.17792C10.4096 9.17792 10.7821 9.55042 10.7821 10.0113C10.7821 10.4721 10.4096 10.8446 9.94875 10.8446C9.48792 10.8446 9.11208 10.4721 9.11208 10.0113C9.11208 9.55042 9.48042 9.17792 9.94125 9.17792H9.94875ZM6.60808 9.17792C7.06892 9.17792 7.44142 9.55042 7.44142 10.0113C7.44142 10.4721 7.06892 10.8446 6.60808 10.8446C6.14725 10.8446 5.77058 10.4721 5.77058 10.0113C5.77058 9.55042 6.13975 9.17792 6.60058 9.17792H6.60808Z" fill="black"/>
</svg>
