<svg width="26" height="26" viewBox="0 0 26 26" fill="none" xmlns="http://www.w3.org/2000/svg">
<path d="M20.108 15.1879C22.1663 15.1879 23.8334 16.8269 23.8334 18.8492C23.8334 20.8702 22.1663 22.5093 20.108 22.5093C18.0509 22.5093 16.3825 20.8702 16.3825 18.8492C16.3825 16.8269 18.0509 15.1879 20.108 15.1879ZM10.9236 17.2878C11.8252 17.2878 12.5571 18.0068 12.5571 18.8926C12.5571 19.7771 11.8252 20.4973 10.9236 20.4973H3.80016C2.8986 20.4973 2.16675 19.7771 2.16675 18.8926C2.16675 18.0068 2.8986 17.2878 3.80016 17.2878H10.9236ZM5.89219 3.25C7.95051 3.25 9.61763 4.88907 9.61763 6.91011C9.61763 8.93233 7.95051 10.5714 5.89219 10.5714C3.83507 10.5714 2.16675 8.93233 2.16675 6.91011C2.16675 4.88907 3.83507 3.25 5.89219 3.25ZM22.2012 5.30652C23.1016 5.30652 23.8334 6.02553 23.8334 6.91011C23.8334 7.79587 23.1016 8.51488 22.2012 8.51488H15.0777C14.1762 8.51488 13.4443 7.79587 13.4443 6.91011C13.4443 6.02553 14.1762 5.30652 15.0777 5.30652H22.2012Z" fill="#01120E"/>
</svg>
