<svg width="54" height="48" viewBox="0 0 54 48" fill="none" xmlns="http://www.w3.org/2000/svg">
<path d="M30.5955 15.6963H23.3755" stroke="#868E96" stroke-width="1.5" stroke-linecap="round" stroke-linejoin="round"/>
<path d="M30.5955 11.9365H23.3755" stroke="#868E96" stroke-width="1.5" stroke-linecap="round" stroke-linejoin="round"/>
<path d="M26.131 8.17676H23.376" stroke="#868E96" stroke-width="1.5" stroke-linecap="round" stroke-linejoin="round"/>
<path fill-rule="evenodd" clip-rule="evenodd" d="M18.6099 12C18.6099 18.937 20.7079 21.25 27.0009 21.25C33.2949 21.25 35.3919 18.937 35.3919 12C35.3919 5.063 33.2949 2.75 27.0009 2.75C20.7079 2.75 18.6099 5.063 18.6099 12Z" stroke="#868E96" stroke-width="1.5" stroke-linecap="round" stroke-linejoin="round"/>
<path d="M5.91459 38.152C6.64659 37.876 7.11459 37.156 7.11459 36.352C7.11459 35.764 6.89859 35.248 6.46659 34.804C6.04659 34.36 5.44659 34.132 4.67859 34.132H1.17459V43H4.83459C5.69859 43 6.37059 42.748 6.85059 42.244C7.34259 41.74 7.58259 41.14 7.58259 40.456C7.58259 39.388 7.00659 38.452 5.91459 38.152ZM4.52259 35.248C5.37459 35.248 5.89059 35.8 5.89059 36.424C5.89059 37.108 5.36259 37.72 4.48659 37.72H2.36259V35.248H4.52259ZM2.36259 41.872V38.812H4.59459C5.71059 38.812 6.34659 39.52 6.34659 40.372C6.34659 40.768 6.19059 41.128 5.87859 41.428C5.57859 41.728 5.15859 41.872 4.64259 41.872H2.36259ZM11.9971 43.156C12.9691 43.156 13.7731 42.832 14.4091 42.184C15.0451 41.524 15.3691 40.72 15.3691 39.772C15.3691 38.836 15.0451 38.044 14.4091 37.384C13.7731 36.724 12.9691 36.4 11.9971 36.4C11.0131 36.4 10.1971 36.724 9.56109 37.384C8.92509 38.032 8.61309 38.824 8.61309 39.772C8.61309 40.72 8.92509 41.524 9.56109 42.184C10.1971 42.832 11.0131 43.156 11.9971 43.156ZM14.2171 39.772C14.2171 40.408 14.0011 40.96 13.5691 41.416C13.1371 41.872 12.6091 42.1 11.9971 42.1C11.3851 42.1 10.8571 41.872 10.4251 41.416C9.99309 40.96 9.77709 40.408 9.77709 39.772C9.77709 39.136 9.99309 38.596 10.4251 38.152C10.8571 37.696 11.3851 37.468 11.9971 37.468C12.6091 37.468 13.1371 37.696 13.5691 38.152C14.0011 38.596 14.2171 39.136 14.2171 39.772ZM19.7315 43.156C20.7035 43.156 21.5075 42.832 22.1435 42.184C22.7795 41.524 23.1035 40.72 23.1035 39.772C23.1035 38.836 22.7795 38.044 22.1435 37.384C21.5075 36.724 20.7035 36.4 19.7315 36.4C18.7475 36.4 17.9315 36.724 17.2955 37.384C16.6595 38.032 16.3475 38.824 16.3475 39.772C16.3475 40.72 16.6595 41.524 17.2955 42.184C17.9315 42.832 18.7475 43.156 19.7315 43.156ZM21.9515 39.772C21.9515 40.408 21.7355 40.96 21.3035 41.416C20.8715 41.872 20.3435 42.1 19.7315 42.1C19.1195 42.1 18.5915 41.872 18.1595 41.416C17.7275 40.96 17.5115 40.408 17.5115 39.772C17.5115 39.136 17.7275 38.596 18.1595 38.152C18.5915 37.696 19.1195 37.468 19.7315 37.468C20.3435 37.468 20.8715 37.696 21.3035 38.152C21.7355 38.596 21.9515 39.136 21.9515 39.772ZM30.1778 43L27.0578 39.268L30.0698 36.568H28.5098L25.6298 39.172V33.916H24.4778V43H25.6298V40.552L26.2418 40L28.6658 43H30.1778ZM31.6169 35.656C32.0609 35.656 32.4329 35.308 32.4329 34.828C32.4329 34.384 32.0609 34.024 31.6169 34.024C31.1369 34.024 30.7769 34.36 30.7769 34.828C30.7769 35.308 31.1369 35.656 31.6169 35.656ZM32.1689 36.568H31.0169V43H32.1689V36.568ZM35.1103 43V39.436C35.1103 38.86 35.2783 38.392 35.6023 38.02C35.9383 37.648 36.3703 37.468 36.8863 37.468C37.8583 37.468 38.5303 38.176 38.5303 39.424V43H39.6703V39.1C39.6703 38.224 39.4303 37.564 38.9383 37.096C38.4463 36.628 37.8463 36.4 37.1263 36.4C36.1783 36.4 35.4943 36.76 35.0863 37.48V36.568H33.9583V43H35.1103ZM46.4643 37.408C45.8883 36.748 45.1563 36.412 44.2683 36.412C43.3443 36.412 42.5643 36.724 41.9283 37.36C41.2923 37.984 40.9803 38.764 40.9803 39.7C40.9803 40.648 41.2923 41.428 41.9043 42.064C42.5163 42.7 43.2843 43.012 44.2083 43.012C45.1323 43.012 45.8883 42.676 46.4643 42.004V42.532C46.4643 43.168 46.2603 43.684 45.8403 44.08C45.4203 44.488 44.8563 44.692 44.1483 44.692C43.3203 44.692 42.5523 44.428 41.8563 43.912L41.3163 44.824C42.1683 45.436 43.1163 45.736 44.1603 45.736C45.2043 45.736 46.0443 45.424 46.6683 44.812C47.2923 44.2 47.6043 43.384 47.6043 42.34V36.568H46.4643V37.408ZM42.7683 41.332C42.3483 40.9 42.1443 40.36 42.1443 39.712C42.1443 39.064 42.3483 38.524 42.7683 38.104C43.1883 37.672 43.7043 37.456 44.3403 37.456C44.9763 37.456 45.4923 37.672 45.9123 38.104C46.3323 38.524 46.5363 39.064 46.5363 39.712C46.5363 40.36 46.3323 40.9 45.9123 41.332C45.4923 41.764 44.9763 41.98 44.3403 41.98C43.7043 41.98 43.1883 41.764 42.7683 41.332ZM51.1802 43.144C51.8642 43.144 52.4162 42.952 52.8482 42.58C53.2802 42.208 53.4962 41.74 53.4962 41.188C53.4962 40.48 53.1362 39.94 52.4042 39.568C52.2122 39.46 51.9242 39.328 51.5402 39.172L50.8322 38.86C50.4722 38.692 50.2922 38.44 50.2922 38.104C50.2922 37.672 50.6402 37.324 51.2162 37.324C51.7922 37.324 52.2482 37.576 52.5962 38.068L53.3282 37.372C52.8962 36.7 52.1042 36.352 51.2882 36.352C50.6522 36.352 50.1482 36.52 49.7642 36.868C49.3802 37.204 49.1882 37.636 49.1882 38.152C49.1882 38.836 49.5122 39.352 50.1722 39.712C50.3042 39.784 50.5682 39.904 50.9642 40.072C51.3602 40.24 51.6362 40.36 51.7682 40.432C52.1642 40.636 52.3562 40.912 52.3562 41.248C52.3562 41.74 51.9002 42.136 51.2162 42.136C50.6282 42.136 49.9922 41.8 49.6202 41.116L48.7922 41.752C49.2842 42.676 50.2202 43.144 51.1802 43.144Z" fill="#868E96"/>
</svg>
