<svg width="53" height="48" viewBox="0 0 53 48" fill="none" xmlns="http://www.w3.org/2000/svg">
<path d="M30.4395 12.4131H30.4485" stroke="#868E96" stroke-width="2" stroke-linecap="round" stroke-linejoin="round"/>
<path d="M26.4302 12.4131H26.4392" stroke="#868E96" stroke-width="2" stroke-linecap="round" stroke-linejoin="round"/>
<path d="M22.4214 12.4131H22.4304" stroke="#868E96" stroke-width="2" stroke-linecap="round" stroke-linejoin="round"/>
<path fill-rule="evenodd" clip-rule="evenodd" d="M33.571 19.0698C30.5159 22.1264 25.9896 22.7867 22.2863 21.074C21.7396 20.8539 18.2011 21.8339 17.4333 21.067C16.6656 20.2991 17.6464 16.7601 17.4263 16.2134C15.7128 12.5106 16.3741 7.9826 19.4302 4.9271C23.3315 1.0243 29.6698 1.0243 33.571 4.9271C37.4803 8.83593 37.4723 15.1681 33.571 19.0698Z" stroke="#868E96" stroke-width="1.5" stroke-linecap="round" stroke-linejoin="round"/>
<path d="M2.54814 43V37.012L5.59614 41.488H5.90814L8.95614 37.012V43H10.1561V34.132H9.56814L5.76414 39.76L1.93614 34.132H1.36014V43H2.54814ZM18.0769 39.664C18.0769 38.668 17.7889 37.876 17.2009 37.288C16.6249 36.7 15.8809 36.412 14.9689 36.412C14.0089 36.412 13.2289 36.724 12.6169 37.36C12.0169 37.996 11.7169 38.788 11.7169 39.76C11.7169 41.428 12.7249 43.144 15.1489 43.144C16.2169 43.144 17.2729 42.736 17.9089 42.244L17.4169 41.368C16.8289 41.8 15.9409 42.088 15.1729 42.088C13.8289 42.088 13.1089 41.344 12.9169 40.252H18.0409C18.0649 39.94 18.0769 39.748 18.0769 39.664ZM12.9169 39.256C13.1089 38.188 13.9129 37.432 14.9689 37.432C16.0249 37.432 16.8289 38.14 16.8889 39.256H12.9169ZM21.2368 43.144C21.9208 43.144 22.4728 42.952 22.9048 42.58C23.3368 42.208 23.5528 41.74 23.5528 41.188C23.5528 40.48 23.1928 39.94 22.4608 39.568C22.2688 39.46 21.9808 39.328 21.5968 39.172L20.8888 38.86C20.5288 38.692 20.3488 38.44 20.3488 38.104C20.3488 37.672 20.6968 37.324 21.2728 37.324C21.8488 37.324 22.3048 37.576 22.6528 38.068L23.3848 37.372C22.9528 36.7 22.1608 36.352 21.3448 36.352C20.7088 36.352 20.2048 36.52 19.8208 36.868C19.4368 37.204 19.2448 37.636 19.2448 38.152C19.2448 38.836 19.5688 39.352 20.2288 39.712C20.3608 39.784 20.6248 39.904 21.0208 40.072C21.4168 40.24 21.6928 40.36 21.8248 40.432C22.2208 40.636 22.4128 40.912 22.4128 41.248C22.4128 41.74 21.9568 42.136 21.2728 42.136C20.6848 42.136 20.0488 41.8 19.6768 41.116L18.8488 41.752C19.3408 42.676 20.2768 43.144 21.2368 43.144ZM26.6743 43.144C27.3583 43.144 27.9103 42.952 28.3423 42.58C28.7743 42.208 28.9903 41.74 28.9903 41.188C28.9903 40.48 28.6303 39.94 27.8983 39.568C27.7063 39.46 27.4183 39.328 27.0343 39.172L26.3263 38.86C25.9663 38.692 25.7863 38.44 25.7863 38.104C25.7863 37.672 26.1343 37.324 26.7103 37.324C27.2863 37.324 27.7423 37.576 28.0903 38.068L28.8223 37.372C28.3903 36.7 27.5983 36.352 26.7823 36.352C26.1463 36.352 25.6423 36.52 25.2583 36.868C24.8743 37.204 24.6823 37.636 24.6823 38.152C24.6823 38.836 25.0063 39.352 25.6663 39.712C25.7983 39.784 26.0623 39.904 26.4583 40.072C26.8543 40.24 27.1303 40.36 27.2623 40.432C27.6583 40.636 27.8503 40.912 27.8503 41.248C27.8503 41.74 27.3943 42.136 26.7103 42.136C26.1223 42.136 25.4863 41.8 25.1143 41.116L24.2863 41.752C24.7783 42.676 25.7143 43.144 26.6743 43.144ZM35.4115 37.504C34.8115 36.772 34.0555 36.412 33.1435 36.412C32.2195 36.412 31.4515 36.724 30.8395 37.36C30.2275 37.984 29.9275 38.776 29.9275 39.736C29.9275 40.708 30.2275 41.512 30.8395 42.172C31.4515 42.832 32.2195 43.156 33.1435 43.156C34.0795 43.156 34.8355 42.796 35.4115 42.088V43H36.5155V36.568H35.4115V37.504ZM35.4835 39.772C35.4835 40.432 35.2795 40.984 34.8715 41.428C34.4635 41.872 33.9355 42.1 33.2755 42.1C32.6155 42.1 32.0875 41.872 31.6915 41.428C31.2955 40.984 31.0915 40.432 31.0915 39.784C31.0915 39.136 31.2955 38.584 31.6915 38.14C32.0875 37.696 32.6155 37.468 33.2755 37.468C33.9355 37.468 34.4635 37.696 34.8715 38.14C35.2795 38.584 35.4835 39.136 35.4835 39.772ZM43.392 37.408C42.816 36.748 42.084 36.412 41.196 36.412C40.272 36.412 39.492 36.724 38.856 37.36C38.22 37.984 37.908 38.764 37.908 39.7C37.908 40.648 38.22 41.428 38.832 42.064C39.444 42.7 40.212 43.012 41.136 43.012C42.06 43.012 42.816 42.676 43.392 42.004V42.532C43.392 43.168 43.188 43.684 42.768 44.08C42.348 44.488 41.784 44.692 41.076 44.692C40.248 44.692 39.48 44.428 38.784 43.912L38.244 44.824C39.096 45.436 40.044 45.736 41.088 45.736C42.132 45.736 42.972 45.424 43.596 44.812C44.22 44.2 44.532 43.384 44.532 42.34V36.568H43.392V37.408ZM39.696 41.332C39.276 40.9 39.072 40.36 39.072 39.712C39.072 39.064 39.276 38.524 39.696 38.104C40.116 37.672 40.632 37.456 41.268 37.456C41.904 37.456 42.42 37.672 42.84 38.104C43.26 38.524 43.464 39.064 43.464 39.712C43.464 40.36 43.26 40.9 42.84 41.332C42.42 41.764 41.904 41.98 41.268 41.98C40.632 41.98 40.116 41.764 39.696 41.332ZM52.2839 39.664C52.2839 38.668 51.9959 37.876 51.4079 37.288C50.8319 36.7 50.0879 36.412 49.1759 36.412C48.2159 36.412 47.4359 36.724 46.8239 37.36C46.2239 37.996 45.9239 38.788 45.9239 39.76C45.9239 41.428 46.9319 43.144 49.3559 43.144C50.4239 43.144 51.4799 42.736 52.1159 42.244L51.6239 41.368C51.0359 41.8 50.1479 42.088 49.3799 42.088C48.0359 42.088 47.3159 41.344 47.1239 40.252H52.2479C52.2719 39.94 52.2839 39.748 52.2839 39.664ZM47.1239 39.256C47.3159 38.188 48.1199 37.432 49.1759 37.432C50.2319 37.432 51.0359 38.14 51.0959 39.256H47.1239Z" fill="#868E96"/>
</svg>
