<svg width="49" height="48" viewBox="0 0 49 48" fill="none" xmlns="http://www.w3.org/2000/svg">
<path fill-rule="evenodd" clip-rule="evenodd" d="M24.5 9.5C25.8809 9.5 27 10.6191 27 12C27 13.3809 25.8809 14.5 24.5 14.5C23.1191 14.5 22 13.3809 22 12C22 10.6191 23.1191 9.5 24.5 9.5Z" stroke="#868E96" stroke-width="1.5" stroke-linecap="round" stroke-linejoin="round"/>
<path fill-rule="evenodd" clip-rule="evenodd" d="M32.668 7.25025C31.9845 6.05799 30.4712 5.65004 29.2885 6.33852C28.2598 6.93613 26.9741 6.18838 26.9741 4.99218C26.9741 3.61619 25.8659 2.5 24.4998 2.5C23.1337 2.5 22.0255 3.61619 22.0255 4.99218C22.0255 6.18838 20.7398 6.93613 19.712 6.33852C18.5283 5.65004 17.0151 6.05799 16.3315 7.25025C15.649 8.4425 16.054 9.96665 17.2377 10.6541C18.2655 11.2527 18.2655 12.7473 17.2377 13.3459C16.054 14.0343 15.649 15.5585 16.3315 16.7498C17.0151 17.942 18.5283 18.35 19.711 17.6625H19.712C20.7398 17.0639 22.0255 17.8116 22.0255 19.0078C22.0255 20.3838 23.1337 21.5 24.4998 21.5C25.8659 21.5 26.9741 20.3838 26.9741 19.0078C26.9741 17.8116 28.2598 17.0639 29.2885 17.6625C30.4712 18.35 31.9845 17.942 32.668 16.7498C33.3515 15.5585 32.9455 14.0343 31.7628 13.3459H31.7618C30.7341 12.7473 30.7341 11.2527 31.7628 10.6541C32.9455 9.96665 33.3515 8.4425 32.668 7.25025Z" stroke="#868E96" stroke-width="1.5" stroke-linecap="round" stroke-linejoin="round"/>
<path d="M3.8187 43.144C4.6587 43.144 5.3547 42.904 5.9067 42.436C6.4707 41.968 6.7467 41.356 6.7467 40.6C6.7467 39.736 6.3147 39.052 5.4627 38.536C5.2587 38.416 4.8867 38.224 4.3467 37.972C3.8067 37.72 3.4707 37.54 3.3147 37.444C2.8107 37.144 2.5587 36.772 2.5587 36.304C2.5587 35.584 3.1587 35.104 3.9627 35.104C4.6707 35.104 5.2707 35.416 5.7507 36.052L6.5547 35.284C5.9187 34.408 5.0427 33.976 3.9507 33.976C3.1467 33.976 2.4987 34.204 2.0067 34.672C1.5147 35.128 1.2747 35.692 1.2747 36.376C1.2747 37.216 1.7187 37.924 2.6067 38.488C2.8347 38.62 3.1587 38.788 3.6027 38.992C4.0467 39.196 4.3587 39.34 4.5147 39.424C5.1267 39.772 5.4387 40.18 5.4387 40.66C5.4387 41.416 4.8147 42.004 3.8067 42.004C2.9427 42.004 2.1627 41.536 1.6827 40.588L0.794703 41.32C1.3707 42.508 2.5347 43.144 3.8187 43.144ZM14.1081 39.664C14.1081 38.668 13.8201 37.876 13.2321 37.288C12.6561 36.7 11.9121 36.412 11.0001 36.412C10.0401 36.412 9.26014 36.724 8.64814 37.36C8.04814 37.996 7.74814 38.788 7.74814 39.76C7.74814 41.428 8.75614 43.144 11.1801 43.144C12.2481 43.144 13.3041 42.736 13.9401 42.244L13.4481 41.368C12.8601 41.8 11.9721 42.088 11.2041 42.088C9.86014 42.088 9.14014 41.344 8.94814 40.252H14.0721C14.0961 39.94 14.1081 39.748 14.1081 39.664ZM8.94814 39.256C9.14014 38.188 9.94414 37.432 11.0001 37.432C12.0561 37.432 12.8601 38.14 12.9201 39.256H8.94814ZM19.1306 41.728C18.7346 41.98 18.3506 42.1 17.9786 42.1C17.2826 42.1 16.9346 41.68 16.9346 40.828V37.552H19.2146V36.568H16.9346V34.288H15.8066V36.568H14.6546V37.552H15.7946V40.744C15.7946 42.28 16.4906 43.156 17.8466 43.156C18.5306 43.156 19.0946 42.976 19.5626 42.616L19.1306 41.728ZM24.2517 41.728C23.8557 41.98 23.4717 42.1 23.0997 42.1C22.4037 42.1 22.0557 41.68 22.0557 40.828V37.552H24.3357V36.568H22.0557V34.288H20.9277V36.568H19.7757V37.552H20.9157V40.744C20.9157 42.28 21.6117 43.156 22.9677 43.156C23.6517 43.156 24.2157 42.976 24.6837 42.616L24.2517 41.728ZM26.2048 35.656C26.6488 35.656 27.0208 35.308 27.0208 34.828C27.0208 34.384 26.6488 34.024 26.2048 34.024C25.7248 34.024 25.3648 34.36 25.3648 34.828C25.3648 35.308 25.7248 35.656 26.2048 35.656ZM26.7568 36.568H25.6048V43H26.7568V36.568ZM29.6982 43V39.436C29.6982 38.86 29.8662 38.392 30.1902 38.02C30.5262 37.648 30.9582 37.468 31.4742 37.468C32.4462 37.468 33.1182 38.176 33.1182 39.424V43H34.2582V39.1C34.2582 38.224 34.0182 37.564 33.5262 37.096C33.0342 36.628 32.4342 36.4 31.7142 36.4C30.7662 36.4 30.0822 36.76 29.6742 37.48V36.568H28.5462V43H29.6982ZM41.0522 37.408C40.4762 36.748 39.7442 36.412 38.8562 36.412C37.9322 36.412 37.1522 36.724 36.5162 37.36C35.8802 37.984 35.5682 38.764 35.5682 39.7C35.5682 40.648 35.8802 41.428 36.4922 42.064C37.1042 42.7 37.8722 43.012 38.7962 43.012C39.7202 43.012 40.4762 42.676 41.0522 42.004V42.532C41.0522 43.168 40.8482 43.684 40.4282 44.08C40.0082 44.488 39.4442 44.692 38.7362 44.692C37.9082 44.692 37.1402 44.428 36.4442 43.912L35.9042 44.824C36.7562 45.436 37.7042 45.736 38.7482 45.736C39.7922 45.736 40.6322 45.424 41.2562 44.812C41.8802 44.2 42.1922 43.384 42.1922 42.34V36.568H41.0522V37.408ZM37.3562 41.332C36.9362 40.9 36.7322 40.36 36.7322 39.712C36.7322 39.064 36.9362 38.524 37.3562 38.104C37.7762 37.672 38.2922 37.456 38.9282 37.456C39.5642 37.456 40.0802 37.672 40.5002 38.104C40.9202 38.524 41.1242 39.064 41.1242 39.712C41.1242 40.36 40.9202 40.9 40.5002 41.332C40.0802 41.764 39.5642 41.98 38.9282 41.98C38.2922 41.98 37.7762 41.764 37.3562 41.332ZM45.7681 43.144C46.4521 43.144 47.0041 42.952 47.4361 42.58C47.8681 42.208 48.0841 41.74 48.0841 41.188C48.0841 40.48 47.7241 39.94 46.9921 39.568C46.8001 39.46 46.5121 39.328 46.1281 39.172L45.4201 38.86C45.0601 38.692 44.8801 38.44 44.8801 38.104C44.8801 37.672 45.2281 37.324 45.8041 37.324C46.3801 37.324 46.8361 37.576 47.1841 38.068L47.9161 37.372C47.4841 36.7 46.6921 36.352 45.8761 36.352C45.2401 36.352 44.7361 36.52 44.3521 36.868C43.9681 37.204 43.7761 37.636 43.7761 38.152C43.7761 38.836 44.1001 39.352 44.7601 39.712C44.8921 39.784 45.1561 39.904 45.5521 40.072C45.9481 40.24 46.2241 40.36 46.3561 40.432C46.7521 40.636 46.9441 40.912 46.9441 41.248C46.9441 41.74 46.4881 42.136 45.8041 42.136C45.2161 42.136 44.5801 41.8 44.2081 41.116L43.3801 41.752C43.8721 42.676 44.8081 43.144 45.7681 43.144Z" fill="#868E96"/>
</svg>
