<svg width="37" height="48" viewBox="0 0 37 48" fill="none" xmlns="http://www.w3.org/2000/svg">
<path d="M15.5786 16.1357H21.3936" stroke="#868E96" stroke-width="1.5" stroke-linecap="round" stroke-linejoin="round"/>
<path fill-rule="evenodd" clip-rule="evenodd" d="M8.8999 13.713C8.8999 8.082 9.5139 8.475 12.8189 5.41C14.2649 4.246 16.5149 2 18.4579 2C20.3999 2 22.6949 4.235 24.1539 5.41C27.4589 8.475 28.0719 8.082 28.0719 13.713C28.0719 22 26.1129 22 18.4859 22C10.8589 22 8.8999 22 8.8999 13.713Z" stroke="#868E96" stroke-width="1.5" stroke-linecap="round" stroke-linejoin="round"/>
<path d="M2.93656 43V39.148H7.16056V43H8.54056V34.132H7.16056V37.816H2.93656V34.132H1.55656V43H2.93656ZM10.0149 39.76C10.0149 40.72 10.3389 41.524 10.9749 42.184C11.6229 42.844 12.4389 43.168 13.4349 43.168C14.4309 43.168 15.2469 42.844 15.8829 42.184C16.5309 41.524 16.8549 40.72 16.8549 39.76C16.8549 38.812 16.5309 38.02 15.8829 37.36C15.2469 36.7 14.4309 36.364 13.4349 36.364C12.4389 36.364 11.6229 36.7 10.9749 37.36C10.3389 38.02 10.0149 38.812 10.0149 39.76ZM15.5229 39.76C15.5229 40.36 15.3189 40.876 14.9109 41.296C14.5149 41.716 14.0229 41.932 13.4349 41.932C12.8469 41.932 12.3549 41.716 11.9469 41.296C11.5509 40.876 11.3469 40.36 11.3469 39.76C11.3469 39.172 11.5509 38.656 11.9469 38.236C12.3549 37.804 12.8469 37.588 13.4349 37.588C14.0229 37.588 14.5149 37.804 14.9109 38.236C15.3189 38.656 15.5229 39.172 15.5229 39.76ZM25.7641 36.352C24.7681 36.352 23.8681 36.82 23.4241 37.54C23.0761 36.784 22.2841 36.364 21.4321 36.352C20.5801 36.352 19.8601 36.784 19.4761 37.468V36.532H18.1801V43H19.5001V39.412C19.5001 38.308 20.1721 37.588 21.1321 37.588C22.0441 37.588 22.6201 38.26 22.6201 39.376V43H23.9401V39.388C23.9401 38.296 24.6001 37.588 25.5601 37.588C26.4601 37.588 27.0361 38.212 27.0361 39.352V43H28.3561V39.136C28.3561 38.284 28.1161 37.6 27.6361 37.108C27.1681 36.604 26.5441 36.352 25.7641 36.352ZM36.0769 39.64C36.0769 38.632 35.7769 37.84 35.1889 37.252C34.6009 36.664 33.8329 36.376 32.9089 36.376C31.9369 36.376 31.1329 36.7 30.5209 37.336C29.9089 37.972 29.6089 38.776 29.6089 39.748C29.6089 41.452 30.6529 43.144 33.0769 43.144C34.1689 43.144 35.2129 42.736 35.8729 42.244L35.3209 41.272C34.7449 41.692 33.8569 41.968 33.1249 41.968C31.8769 41.968 31.1689 41.284 30.9769 40.276H36.0289C36.0649 40.036 36.0769 39.82 36.0769 39.64ZM32.9089 37.516C33.8809 37.516 34.6369 38.176 34.7449 39.196H30.9769C31.1689 38.188 31.9129 37.516 32.9089 37.516Z" fill="#868E96"/>
</svg>
