<svg width="20" height="20" viewBox="0 0 20 20" fill="none" xmlns="http://www.w3.org/2000/svg">
<path fill-rule="evenodd" clip-rule="evenodd" d="M12.4141 2.36825C12.7591 2.36825 13.0391 2.64825 13.0391 2.99325C13.0391 3.33825 12.7591 3.61825 12.4141 3.61825H6.3574C4.2674 3.61825 2.91657 5.05492 2.91657 7.27992V14.0149C2.91657 16.2691 4.2349 17.6691 6.3574 17.6691H13.5274C15.6174 17.6691 16.9682 16.2349 16.9682 14.0149V8.14909C16.9682 7.80409 17.2482 7.52409 17.5932 7.52409C17.9382 7.52409 18.2182 7.80409 18.2182 8.14909V14.0149C18.2182 16.9483 16.3332 18.9191 13.5274 18.9191H6.3574C3.55157 18.9191 1.66657 16.9483 1.66657 14.0149V7.27992C1.66657 4.34242 3.55157 2.36825 6.3574 2.36825H12.4141ZM14.1769 8.05975C14.4502 8.27142 14.5002 8.66392 14.2886 8.93642L11.8469 12.0864C11.7452 12.2181 11.5952 12.3039 11.4302 12.3239C11.2636 12.3464 11.0986 12.2981 10.9669 12.1956L8.61857 10.3506L6.5094 13.0914C6.38607 13.2514 6.20107 13.3356 6.01357 13.3356C5.88024 13.3356 5.74607 13.2931 5.63274 13.2064C5.3594 12.9956 5.30774 12.6031 5.51857 12.3298L8.01274 9.08809C8.1144 8.95559 8.26524 8.86975 8.43024 8.84892C8.59857 8.82725 8.76357 8.87392 8.8944 8.97809L11.2444 10.8239L13.3002 8.17142C13.5119 7.89725 13.9036 7.84642 14.1769 8.05975ZM16.6394 1.6665C17.8677 1.6665 18.8661 2.66484 18.8661 3.89317C18.8661 5.1215 17.8677 6.12067 16.6394 6.12067C15.4119 6.12067 14.4127 5.1215 14.4127 3.89317C14.4127 2.66484 15.4119 1.6665 16.6394 1.6665ZM16.6394 2.9165C16.1011 2.9165 15.6627 3.354 15.6627 3.89317C15.6627 4.4315 16.1011 4.87067 16.6394 4.87067C17.1777 4.87067 17.6161 4.4315 17.6161 3.89317C17.6161 3.354 17.1777 2.9165 16.6394 2.9165Z" fill="black"/>
</svg>
