<svg width="20" height="20" viewBox="0 0 20 20" fill="none" xmlns="http://www.w3.org/2000/svg">
<path fill-rule="evenodd" clip-rule="evenodd" d="M10.403 1.6665C11.3472 1.6665 16.3013 3.36734 16.9572 4.02317C17.5038 4.56984 17.4955 5.0115 17.4572 7.12817C17.4422 7.9765 17.4213 9.13234 17.4213 10.7323C17.4213 16.4673 10.863 18.519 10.5838 18.6032C10.5247 18.6215 10.4638 18.6298 10.403 18.6298C10.3422 18.6298 10.2813 18.6215 10.2222 18.6032C9.943 18.519 3.38467 16.4673 3.38467 10.7323C3.38467 9.13484 3.36383 7.979 3.34883 7.13067C3.34199 6.75225 3.3361 6.42732 3.33416 6.14573L3.33392 5.82798C3.34107 4.78411 3.43904 4.43317 3.84967 4.02317C4.50383 3.36734 9.458 1.6665 10.403 1.6665ZM10.403 2.9165C9.69633 2.9165 5.238 4.4865 4.72383 4.91567C4.57217 5.06817 4.56633 5.33317 4.59883 7.10734C4.61383 7.96234 4.63467 9.124 4.63467 10.7323C4.63467 15.0665 9.403 16.9907 10.4022 17.3448C11.4005 16.989 16.1713 15.054 16.1713 10.7323C16.1713 9.12234 16.1922 7.95984 16.208 7.10484C16.2397 5.33234 16.2338 5.06734 16.073 4.90734C15.5688 4.4865 11.1097 2.9165 10.403 2.9165ZM13.5042 7.78275C13.7484 8.02692 13.7484 8.42275 13.5042 8.66692L10.2559 11.9161C10.1626 12.0101 10.042 12.071 9.91266 12.0916L9.81425 12.0994C9.64842 12.0994 9.48925 12.0336 9.37175 11.9161L7.79508 10.3378C7.55175 10.0936 7.55175 9.69692 7.79592 9.45359C8.03925 9.20942 8.43592 9.20942 8.68008 9.45359L9.81425 10.5894L12.6209 7.78275C12.8651 7.53859 13.2601 7.53859 13.5042 7.78275Z" fill="#01120E"/>
</svg>
