<svg width="20" height="20" viewBox="0 0 20 20" fill="none" xmlns="http://www.w3.org/2000/svg">
<path fill-rule="evenodd" clip-rule="evenodd" d="M9.42358 1.6665C11.4619 1.6665 13.1202 3.32484 13.1202 5.36317V6.13984C13.1202 6.48484 12.8402 6.76484 12.4952 6.76484C12.1502 6.76484 11.8702 6.48484 11.8702 6.13984V5.36317C11.8702 4.01317 10.7727 2.9165 9.42358 2.9165H5.36108C4.01358 2.9165 2.91692 4.01317 2.91692 5.36317V14.6373C2.91692 15.9865 4.01358 17.0832 5.36108 17.0832H9.43275C10.7761 17.0832 11.8702 15.9898 11.8702 14.6465V13.8607C11.8702 13.5157 12.1502 13.2357 12.4952 13.2357C12.8402 13.2357 13.1202 13.5157 13.1202 13.8607V14.6465C13.1202 16.6798 11.4652 18.3332 9.43275 18.3332H5.36108C3.32442 18.3332 1.66692 16.6757 1.66692 14.6373V5.36317C1.66692 3.32484 3.32442 1.6665 5.36108 1.6665H9.42358ZM16.157 7.12817L18.597 9.55734C18.6188 9.57894 18.6383 9.6014 18.6561 9.62516L18.597 9.55734C18.6265 9.58645 18.6528 9.61825 18.6756 9.65217C18.6856 9.66754 18.6953 9.68343 18.7042 9.69977C18.7115 9.71253 18.7182 9.72585 18.7244 9.73939C18.7297 9.75135 18.7347 9.76332 18.7394 9.77548C18.7457 9.79132 18.7512 9.8076 18.756 9.82409C18.7596 9.83709 18.763 9.85005 18.7659 9.86317C18.7696 9.87909 18.7726 9.8951 18.7749 9.91124C18.7762 9.92173 18.7775 9.93272 18.7784 9.9438C18.7803 9.96281 18.7812 9.98129 18.7812 9.99984L18.7769 10.0515L18.7752 10.0846C18.775 10.086 18.7748 10.0874 18.7746 10.0888L18.7812 9.99984C18.7812 10.0461 18.776 10.0919 18.7661 10.1364C18.763 10.1496 18.7596 10.1626 18.7559 10.1754C18.7512 10.1921 18.7457 10.2084 18.7395 10.2244C18.7347 10.2364 18.7297 10.2483 18.7243 10.2601C18.7182 10.2738 18.7115 10.2871 18.7043 10.3002C18.6953 10.3162 18.6856 10.3321 18.6753 10.3475C18.6694 10.3567 18.663 10.3657 18.6563 10.3745C18.6365 10.4007 18.6149 10.4252 18.5915 10.448L16.157 12.8723C16.0353 12.994 15.8753 13.0548 15.7162 13.0548C15.5562 13.0548 15.3953 12.994 15.2737 12.8707C15.0303 12.6257 15.0312 12.2307 15.2753 11.9873L16.6419 10.6248H8.12175C7.77675 10.6248 7.49675 10.3448 7.49675 9.99984C7.49675 9.65484 7.77675 9.37484 8.12175 9.37484H16.6436L15.2753 8.01317C15.0312 7.76984 15.0295 7.37484 15.2737 7.12984C15.517 6.88484 15.912 6.88484 16.157 7.12817Z" fill="#FF5555"/>
</svg>
