<svg width="24" height="24" viewBox="0 0 24 24" fill="none" xmlns="http://www.w3.org/2000/svg">
<path d="M22.3857 10.5431H15.9451V18.6918H8.93258V15.9825H2.20508V22.9968H6.7707V23.1393H20.3813V22.1362H22.3857V10.5431ZM13.3482 6.5531C13.4476 6.6356 13.5113 6.81372 13.487 6.9431L13.3688 7.65935C13.3482 7.78872 13.4213 7.83935 13.5338 7.77185L14.1526 7.40435C14.2632 7.33497 14.4507 7.3331 14.5632 7.39497L15.1988 7.73622C15.3151 7.7981 15.3863 7.74372 15.3582 7.61435L15.2082 6.9056C15.182 6.7781 15.2382 6.59622 15.332 6.50997L15.8363 6.02435C15.932 5.93435 15.9038 5.84435 15.7745 5.82935L15.0657 5.74497C14.9345 5.73185 14.7807 5.62122 14.7226 5.50497L14.4076 4.88435C14.3495 4.76997 14.2576 4.76997 14.2032 4.8881L13.9201 5.52185C13.8657 5.64372 13.7176 5.7581 13.5863 5.77872L12.8776 5.8931C12.7501 5.91185 12.7238 6.00372 12.8232 6.08997L13.3482 6.5531ZM16.7082 2.56497C16.8076 2.64747 16.8713 2.8256 16.847 2.95497L16.7288 3.67122C16.7082 3.8006 16.7813 3.85122 16.8938 3.78372L17.5126 3.41622C17.6232 3.34685 17.8107 3.34497 17.9232 3.40685L18.5588 3.7481C18.6751 3.80997 18.7463 3.7556 18.7182 3.62622L18.5682 2.91747C18.542 2.78997 18.5982 2.6081 18.692 2.52185L19.1963 2.03622C19.292 1.94622 19.2638 1.85622 19.1345 1.84122L18.4257 1.75685C18.2945 1.74372 18.1407 1.6331 18.0826 1.51685L17.7676 0.896223C17.7095 0.781848 17.6176 0.781848 17.5632 0.899973L17.2801 1.53372C17.2257 1.6556 17.0776 1.76997 16.9463 1.7906L16.2376 1.90497C16.1101 1.9256 16.0838 2.0156 16.1832 2.10185L16.7082 2.56497ZM10.5282 9.92435C10.8076 9.86622 11.5145 9.6656 11.4807 9.27935C11.4413 8.8106 10.442 8.71497 10.1026 8.61747C7.3407 7.83747 6.79695 3.6881 8.82758 1.83747C9.1332 1.5581 9.47633 1.32185 9.80633 1.07435C10.0013 0.928098 10.6426 0.714348 10.5826 0.393723C10.4907 0.00934812 9.39195 0.00934815 9.11258 0.0112232C8.06445 0.0149732 7.01258 0.251223 6.0807 0.738723C4.72883 1.4456 3.84008 2.9231 3.70883 4.41185C3.57758 5.88935 3.75195 7.14185 4.83383 8.23685C6.40133 9.82122 8.37195 10.3781 10.5282 9.92435Z" fill="#FCC21B"/>
<path d="M21.1855 9.50439H16.4624C15.4799 9.50439 14.6774 10.3088 14.6774 11.2894V17.2444H9.58117V16.2225C9.58117 15.24 8.7768 14.4375 7.79617 14.4375H2.8143C1.8318 14.4375 1.0293 15.2419 1.0293 16.2225V22.2056C1.0293 22.2581 1.04055 22.3069 1.0443 22.3594V23.9906H22.9687V11.2894C22.9705 10.3088 22.1662 9.50439 21.1855 9.50439ZM3.95242 21.4838C3.95242 21.7538 3.73117 21.975 3.46117 21.975H2.88742C2.61742 21.975 2.39617 21.7538 2.39617 21.4838V20.5725C2.39617 20.3044 2.61742 20.0813 2.88742 20.0813H3.46117C3.73117 20.0813 3.95242 20.3025 3.95242 20.5725V21.4838ZM3.95242 18.6919C3.95242 18.9619 3.73117 19.1831 3.46117 19.1831H2.88742C2.61742 19.1831 2.39617 18.9619 2.39617 18.6919V17.7806C2.39617 17.5125 2.61742 17.2894 2.88742 17.2894H3.46117C3.73117 17.2894 3.95242 17.5106 3.95242 17.7806V18.6919ZM6.13867 21.4838C6.13867 21.7538 5.91742 21.975 5.64742 21.975H5.07367C4.80367 21.975 4.58242 21.7538 4.58242 21.4838V20.5725C4.58242 20.3044 4.80367 20.0813 5.07367 20.0813H5.64742C5.91742 20.0813 6.13867 20.3025 6.13867 20.5725V21.4838ZM6.13867 18.6919C6.13867 18.9619 5.91742 19.1831 5.64742 19.1831H5.07367C4.80367 19.1831 4.58242 18.9619 4.58242 18.6919V17.7806C4.58242 17.5125 4.80367 17.2894 5.07367 17.2894H5.64742C5.91742 17.2894 6.13867 17.5106 6.13867 17.7806V18.6919ZM8.32492 18.6919C8.32492 18.9188 8.16742 19.1006 7.95742 19.1569C7.91617 19.1681 7.8768 19.1831 7.83367 19.1831H7.25992C6.98992 19.1831 6.76867 18.9619 6.76867 18.6919V17.7806C6.76867 17.5125 6.98992 17.2894 7.25992 17.2894H7.83367C7.8768 17.2894 7.91617 17.3025 7.95742 17.3156C8.16555 17.3719 8.32492 17.5556 8.32492 17.7806V18.6919ZM10.5112 21.4838C10.5112 21.7538 10.2899 21.975 10.0199 21.975H9.44805C9.17805 21.975 8.9568 21.7538 8.9568 21.4838V20.5725C8.9568 20.3044 9.17805 20.0813 9.44805 20.0813H10.0218C10.2918 20.0813 10.513 20.3025 10.513 20.5725V21.4838H10.5112ZM17.8124 12.93C17.8124 13.2 17.5912 13.4213 17.3212 13.4213H16.7474C16.4774 13.4213 16.2562 13.2 16.2562 12.93V12.0188C16.2562 11.7488 16.4774 11.5275 16.7474 11.5275H17.3212C17.5912 11.5275 17.8124 11.7488 17.8124 12.0188V12.93ZM19.5487 18.8531C19.5487 18.9431 19.3274 19.1644 19.0574 19.1644H18.4837C18.2137 19.1644 17.9924 18.9431 17.9924 18.6731V17.7619C17.9924 17.4919 18.2137 17.2706 18.4837 17.2706H19.0574C19.3274 17.2706 19.5487 17.4919 19.5487 17.5819V18.8531ZM21.6487 16.125C21.6487 16.215 21.4274 16.4363 21.1574 16.4363H20.5837C20.3137 16.4363 20.0924 16.215 20.0924 15.945V15.0338C20.0924 14.7656 20.3137 14.5425 20.5837 14.5425H21.1574C21.4274 14.5425 21.6487 14.7638 21.6487 14.8538V16.125ZM21.6487 13.11C21.6487 13.2 21.4274 13.4213 21.1574 13.4213H20.5837C20.3137 13.4213 20.0924 13.2 20.0924 12.93V12.0188C20.0924 11.7488 20.3137 11.5275 20.5837 11.5275H21.1574C21.4274 11.5275 21.6487 11.7488 21.6487 11.8388V13.11Z" fill="#006CA2"/>
</svg>
