<svg width="20" height="20" viewBox="0 0 20 20" fill="none" xmlns="http://www.w3.org/2000/svg">
<path fill-rule="evenodd" clip-rule="evenodd" d="M13.6118 1.6665C16.4359 1.6665 18.3334 3.64817 18.3334 6.5965V13.4032C18.3334 16.3515 16.4359 18.3332 13.6101 18.3332H6.38677C3.56343 18.3332 1.66677 16.3515 1.66677 13.4032V6.5965C1.66677 3.64817 3.56343 1.6665 6.38677 1.6665H13.6118ZM13.6118 2.9165H6.38677C4.27927 2.9165 2.91677 4.36067 2.91677 6.5965V13.4032C2.91677 15.639 4.27927 17.0832 6.38677 17.0832H13.6101C15.7201 17.0832 17.0834 15.639 17.0834 13.4032V6.5965C17.0834 4.36067 15.7201 2.9165 13.6118 2.9165ZM7.3641 7.83184C8.34351 7.83252 9.1713 8.48318 9.44033 9.37394L14.1749 9.37442C14.5198 9.37442 14.7999 9.65442 14.7999 9.99942V11.5436C14.7999 11.8886 14.5198 12.1686 14.1749 12.1686C13.8299 12.1686 13.5499 11.8886 13.5499 11.5436V10.6244L12.4426 10.624L12.443 11.5436C12.443 11.8886 12.163 12.1686 11.818 12.1686C11.473 12.1686 11.193 11.8886 11.193 11.5436L11.1926 10.624L9.4407 10.6248C9.17184 11.5166 8.34276 12.1685 7.3641 12.1685C6.16827 12.1685 5.19577 11.1952 5.19577 10.0002C5.19577 8.80434 6.16827 7.83184 7.3641 7.83184ZM7.36577 9.08184C6.85743 9.08184 6.44577 9.4935 6.44577 10.0002C6.44577 10.5068 6.85743 10.9185 7.3641 10.9185C7.86993 10.9185 8.28243 10.5068 8.28243 10.0002C8.28243 9.49434 7.87077 9.08267 7.36577 9.08184Z" fill="#01120E"/>
</svg>
