<svg width="24" height="24" viewBox="0 0 24 24" fill="none" xmlns="http://www.w3.org/2000/svg">
<path fill-rule="evenodd" clip-rule="evenodd" d="M10.6887 12.0004C10.6887 13.0234 9.85974 13.8524 8.83674 13.8524C7.81374 13.8524 6.98474 13.0234 6.98474 12.0004C6.98474 10.9774 7.81374 10.1484 8.83674 10.1484H8.83974C9.86174 10.1494 10.6887 10.9784 10.6887 12.0004Z" stroke="#010B14" stroke-width="1.5" stroke-linecap="round" stroke-linejoin="round"/>
<path d="M10.6918 12H17.0098V13.852" stroke="#010B14" stroke-width="1.5" stroke-linecap="round" stroke-linejoin="round"/>
<path d="M14.182 13.852V12" stroke="#010B14" stroke-width="1.5" stroke-linecap="round" stroke-linejoin="round"/>
<path fill-rule="evenodd" clip-rule="evenodd" d="M2.74988 12C2.74988 5.063 5.06288 2.75 11.9999 2.75C18.9369 2.75 21.2499 5.063 21.2499 12C21.2499 18.937 18.9369 21.25 11.9999 21.25C5.06288 21.25 2.74988 18.937 2.74988 12Z" stroke="#010B14" stroke-width="1.5" stroke-linecap="round" stroke-linejoin="round"/>
</svg>
