<svg width="20" height="20" viewBox="0 0 20 20" fill="none" xmlns="http://www.w3.org/2000/svg">
<path fill-rule="evenodd" clip-rule="evenodd" d="M11.6463 1.66699C11.682 1.66699 11.7171 1.67001 11.7513 1.67579L11.8653 1.67649C12.0353 1.67649 12.1978 1.74566 12.3162 1.86816L16.537 6.26566C16.6487 6.38149 16.7113 6.53733 16.7113 6.69816V14.3365C16.7262 16.4273 15.0978 18.1357 13.0037 18.2207L6.32117 18.2215H6.23033C4.18871 18.1754 2.5513 16.5242 2.50142 14.5025L2.50117 5.40899C2.5495 3.34149 4.257 1.67649 6.3095 1.67649L11.5412 1.67579C11.5754 1.67001 11.6105 1.66699 11.6463 1.66699ZM11.0212 2.92616L6.31117 2.92649C4.93033 2.92649 3.78367 4.04483 3.75117 5.42399V14.3365C3.72033 15.764 4.84533 16.9398 6.25867 16.9715H12.9787C14.3695 16.914 15.4712 15.7582 15.4612 14.3415L15.4612 7.48616L13.7863 7.48699C12.2613 7.48283 11.0213 6.23949 11.0213 4.71616L11.0212 2.92616ZM11.4906 12.1737C11.8356 12.1737 12.1156 12.4537 12.1156 12.7987C12.1156 13.1437 11.8356 13.4237 11.4906 13.4237H6.99058C6.64558 13.4237 6.36558 13.1437 6.36558 12.7987C6.36558 12.4537 6.64558 12.1737 6.99058 12.1737H11.4906ZM9.7865 9.04708C10.1315 9.04708 10.4115 9.32708 10.4115 9.67208C10.4115 10.0171 10.1315 10.2971 9.7865 10.2971H6.98983C6.64483 10.2971 6.36483 10.0171 6.36483 9.67208C6.36483 9.32708 6.64483 9.04708 6.98983 9.04708H9.7865ZM12.2712 3.62699L12.2713 4.71616C12.2713 5.55283 12.9521 6.23449 13.7879 6.23699L14.7762 6.23616L12.2712 3.62699Z" fill="black"/>
</svg>
