<svg width="36" height="36" viewBox="0 0 36 36" fill="none" xmlns="http://www.w3.org/2000/svg">
<path d="M3.85712 8.67836C3.85712 7.39964 4.36509 6.17329 5.26928 5.2691C6.17347 4.3649 7.39982 3.85693 8.67854 3.85693H13.1798C13.4356 3.85693 13.6808 3.95853 13.8617 4.13937C14.0425 4.3202 14.1441 4.56547 14.1441 4.82122C14.1441 5.07696 14.0425 5.32223 13.8617 5.50307C13.6808 5.68391 13.4356 5.7855 13.1798 5.78551H8.67854C7.91131 5.78551 7.1755 6.09029 6.63299 6.6328C6.09047 7.17532 5.78569 7.91113 5.78569 8.67836V13.1784C5.78569 13.4341 5.68409 13.6794 5.50326 13.8602C5.32242 14.0411 5.07715 14.1426 4.8214 14.1426C4.56566 14.1426 4.32039 14.0411 4.13955 13.8602C3.95871 13.6794 3.85712 13.4341 3.85712 13.1784V8.67836ZM21.8571 4.82122C21.8571 4.56547 21.9587 4.3202 22.1395 4.13937C22.3204 3.95853 22.5657 3.85693 22.8214 3.85693H27.3214C28.6001 3.85693 29.8265 4.3649 30.7307 5.2691C31.6349 6.17329 32.1428 7.39964 32.1428 8.67836V13.1784C32.1428 13.4341 32.0412 13.6794 31.8604 13.8602C31.6796 14.0411 31.4343 14.1426 31.1785 14.1426C30.9228 14.1426 30.6775 14.0411 30.4967 13.8602C30.3159 13.6794 30.2143 13.4341 30.2143 13.1784V8.67836C30.2143 7.91113 29.9095 7.17532 29.367 6.6328C28.8244 6.09029 28.0886 5.78551 27.3214 5.78551H22.8214C22.5657 5.7855 22.3204 5.68391 22.1395 5.50307C21.9587 5.32223 21.8571 5.07696 21.8571 4.82122ZM4.8214 21.8569C5.07715 21.8569 5.32242 21.9585 5.50326 22.1394C5.68409 22.3202 5.78569 22.5655 5.78569 22.8212V27.3212C5.78569 28.0885 6.09047 28.8243 6.63299 29.3668C7.1755 29.9093 7.91131 30.2141 8.67854 30.2141H13.1785C13.4343 30.2141 13.6796 30.3157 13.8604 30.4965C14.0412 30.6773 14.1428 30.9226 14.1428 31.1784C14.1428 31.4341 14.0412 31.6794 13.8604 31.8602C13.6796 32.0411 13.4343 32.1426 13.1785 32.1426H8.67854C7.39982 32.1426 6.17347 31.6347 5.26928 30.7305C4.36509 29.8263 3.85712 28.5999 3.85712 27.3212V22.8212C3.85712 22.5655 3.95871 22.3202 4.13955 22.1394C4.32039 21.9585 4.56566 21.8569 4.8214 21.8569ZM31.1785 21.8569C31.4343 21.8569 31.6796 21.9585 31.8604 22.1394C32.0412 22.3202 32.1428 22.5655 32.1428 22.8212V27.3212C32.1428 28.5999 31.6349 29.8263 30.7307 30.7305C29.8265 31.6347 28.6001 32.1426 27.3214 32.1426H22.8214C22.5657 32.1426 22.3204 32.0411 22.1395 31.8602C21.9587 31.6794 21.8571 31.4341 21.8571 31.1784C21.8571 30.9226 21.9587 30.6773 22.1395 30.4965C22.3204 30.3157 22.5657 30.2141 22.8214 30.2141H27.3214C28.0886 30.2141 28.8244 29.9093 29.367 29.3668C29.9095 28.8243 30.2143 28.0885 30.2143 27.3212V22.8212C30.2143 22.5655 30.3159 22.3202 30.4967 22.1394C30.6775 21.9585 30.9228 21.8569 31.1785 21.8569ZM18 20.5712C18.682 20.5712 19.336 20.3003 19.8182 19.8181C20.3005 19.3358 20.5714 18.6818 20.5714 17.9998C20.5714 17.3178 20.3005 16.6638 19.8182 16.1815C19.336 15.6993 18.682 15.4284 18 15.4284C17.318 15.4284 16.6639 15.6993 16.1817 16.1815C15.6995 16.6638 15.4285 17.3178 15.4285 17.9998C15.4285 18.6818 15.6995 19.3358 16.1817 19.8181C16.6639 20.3003 17.318 20.5712 18 20.5712ZM16.2231 10.2855C15.8648 10.2855 15.5135 10.3854 15.2087 10.5739C14.904 10.7624 14.6578 11.032 14.4977 11.3526L13.7455 12.8569H12.8571C12.1751 12.8569 11.5211 13.1279 11.0388 13.6101C10.5566 14.0923 10.2857 14.7464 10.2857 15.4284V21.8569C10.2857 22.5389 10.5566 23.193 11.0388 23.6752C11.5211 24.1574 12.1751 24.4284 12.8571 24.4284H23.1428C23.8248 24.4284 24.4789 24.1574 24.9611 23.6752C25.4433 23.193 25.7143 22.5389 25.7143 21.8569V15.4284C25.7143 14.7464 25.4433 14.0923 24.9611 13.6101C24.4789 13.1279 23.8248 12.8569 23.1428 12.8569H22.2544L21.5023 11.3526C21.3422 11.032 21.096 10.7624 20.7912 10.5739C20.4864 10.3854 20.1352 10.2855 19.7768 10.2855H16.2231ZM18 14.1426C18.5065 14.1426 19.0081 14.2424 19.476 14.4363C19.944 14.6301 20.3692 14.9142 20.7274 15.2724C21.0856 15.6305 21.3697 16.0558 21.5635 16.5237C21.7573 16.9917 21.8571 17.4933 21.8571 17.9998C21.8571 18.5063 21.7573 19.0079 21.5635 19.4759C21.3697 19.9438 21.0856 20.369 20.7274 20.7272C20.3692 21.0854 19.944 21.3695 19.476 21.5633C19.0081 21.7572 18.5065 21.8569 18 21.8569C16.977 21.8569 15.9959 21.4506 15.2726 20.7272C14.5492 20.0038 14.1428 19.0228 14.1428 17.9998C14.1428 16.9768 14.5492 15.9957 15.2726 15.2724C15.9959 14.549 16.977 14.1426 18 14.1426Z" fill="#00BE16"/>
</svg>
