<svg width="20" height="20" viewBox="0 0 20 20" fill="none" xmlns="http://www.w3.org/2000/svg">
<path fill-rule="evenodd" clip-rule="evenodd" d="M13.2572 1.6665C15.8772 1.6665 17.6372 3.46067 17.6372 6.13067V13.794C17.6372 16.4873 15.9314 18.239 13.2914 18.2557L6.88058 18.2582C4.26058 18.2582 2.49975 16.464 2.49975 13.794V6.13067C2.49975 3.4365 4.20558 1.68567 6.84558 1.66984L13.2564 1.6665H13.2572ZM13.2572 2.9165L6.84975 2.91984C4.90975 2.9315 3.74975 4.1315 3.74975 6.13067V13.794C3.74975 15.8065 4.92058 17.0082 6.87975 17.0082L13.2872 17.0057C15.2272 16.994 16.3872 15.7923 16.3872 13.794V6.13067C16.3872 4.11817 15.2172 2.9165 13.2572 2.9165ZM13.0965 12.8946C13.4415 12.8946 13.7215 13.1746 13.7215 13.5196C13.7215 13.8646 13.4415 14.1446 13.0965 14.1446H7.07983C6.73483 14.1446 6.45483 13.8646 6.45483 13.5196C6.45483 13.1746 6.73483 12.8946 7.07983 12.8946H13.0965ZM13.0965 9.40584C13.4415 9.40584 13.7215 9.68584 13.7215 10.0308C13.7215 10.3758 13.4415 10.6558 13.0965 10.6558H7.07983C6.73483 10.6558 6.45483 10.3758 6.45483 10.0308C6.45483 9.68584 6.73483 9.40584 7.07983 9.40584H13.0965ZM9.37541 5.92517C9.72041 5.92517 10.0004 6.20517 10.0004 6.55017C10.0004 6.89517 9.72041 7.17517 9.37541 7.17517H7.07958C6.73458 7.17517 6.45458 6.89517 6.45458 6.55017C6.45458 6.20517 6.73458 5.92517 7.07958 5.92517H9.37541Z" fill="black"/>
</svg>
